#!OML:ASF E:\emotionWalksFemale\Project 1\Capture day 1\Session 1\Female1.ASF
:FULLY-SPECIFIED
:DEGREES
1435
root 6.34786 15.5675 -38.8623 363.986 2.00237 -355.54
lowerback 5.59081 3.13257 4.41962
upperback -5.6123 4.80143 1.86153
thorax -8.88158 2.12927 -1.12014
lowerneck -12.0416 -0.921378 0.149756
upperneck 26.4521 -1.28809 -0.0664473
head 10.4391 -0.55505 -0.203751
rclavicle 4.21423e-014 -1.59028e-015
rhumerus -53.7661 10.074 -78.7651
rradius 22.8545
rwrist 24.118
rhand -8.6306 -48.7058
rfingers 7.12502
rthumb 17.302 -77.9556
lclavicle 4.21423e-014 -1.59028e-015
lhumerus -51.2287 2.50506 76.7494
lradius 25.7405
lwrist -28.7081
lhand 1.19023 -37.1667
lfingers 7.12502
lthumb 26.7299 -9.03473
rfemur -6.97375 15.5891 24.4795
rtibia 23.8823
rfoot -61.9293 -39.3016
rtoes 51.8228
lfemur -15.716 -17.5907 -20.0778
ltibia 33.333
lfoot -26.4842 22.4593
ltoes -3.31274
1436
root 6.35032 15.5763 -38.8824 364.074 2.8242 -355.404
lowerback 5.47045 3.15706 4.34661
upperback -5.56582 4.81191 1.78929
thorax -8.75772 2.14092 -1.14816
lowerneck -11.5701 -1.15224 0.00717868
upperneck 26.3597 -1.59547 0.00149033
head 10.3144 -0.701741 -0.189114
rclavicle -1.53064e-014 1.27222e-014
rhumerus -53.2112 9.58932 -78.2962
rradius 22.6123
rwrist 24.7347
rhand -8.2984 -49.0772
rfingers 7.12502
rthumb 17.6217 -78.2986
lclavicle -1.53064e-014 1.27222e-014
lhumerus -51.0929 2.35098 75.9599
lradius 25.6594
lwrist -28.9457
lhand 0.939178 -37.074
lfingers 7.12502
lthumb 26.4896 -8.90563
rfemur -6.91969 15.6402 24.3629
rtibia 23.7163
rfoot -63.0181 -39.0217
rtoes 52.5613
lfemur -15.8555 -17.5774 -19.7525
ltibia 33.1782
lfoot -25.7451 22.2649
ltoes -2.78719
1437
root 6.35372 15.5806 -38.9014 364.164 3.60482 -355.288
lowerback 5.62558 3.05478 4.17389
upperback -5.46775 4.66964 1.86624
thorax -8.76771 2.08587 -0.961595
lowerneck -11.937 -1.26789 -0.340066
upperneck 26.6174 -1.69205 0.0505632
head 10.4851 -0.771976 -0.127911
rclavicle -1.59028e-014 -9.54166e-015
rhumerus -52.6449 10.24 -78.4189
rradius 22.5979
rwrist 23.5993
rhand -9.21836 -48.8485
rfingers 7.12502
rthumb 16.7362 -78.1471
lclavicle -1.59028e-014 -9.54166e-015
lhumerus -50.9727 2.49156 75.2811
lradius 25.6576
lwrist -28.9778
lhand 0.576883 -36.6062
lfingers 7.12502
lthumb 26.1428 -8.38601
rfemur -6.8806 15.5996 24.2892
rtibia 23.5575
rfoot -63.7976 -39.1345
rtoes 52.915
lfemur -16.0186 -17.746 -19.4157
ltibia 33.016
lfoot -25.5651 21.8345
ltoes -2.67138
1438
root 6.35984 15.5838 -38.9168 364.272 4.32955 -355.2
lowerback 6.01624 3.0408 4.28883
upperback -5.75529 4.68733 1.67118
thorax -9.28835 2.0624 -1.26599
lowerneck -11.4529 -1.45777 -0.162121
upperneck 26.8383 -1.99268 0.0196309
head 10.4696 -0.893209 -0.202939
rclavicle -3.75703e-014 -3.02153e-014
rhumerus -52.6455 9.90328 -78.3028
rradius 22.4993
rwrist 24.1631
rhand -9.39603 -48.6025
rfingers 7.12502
rthumb 16.5652 -77.9155
lclavicle -3.75703e-014 -3.02153e-014
lhumerus -51.3743 1.88187 74.3771
lradius 25.6701
lwrist -28.9467
lhand 0.398712 -36.493
lfingers 7.12502
lthumb 25.9722 -8.24768
rfemur -6.90335 15.4752 24.2066
rtibia 23.4175
rfoot -64.036 -39.5682
rtoes 53.0281
lfemur -16.1977 -18.2255 -19.0556
ltibia 32.8433
lfoot -25.1868 21.5983
ltoes -1.82479
1439
root 6.3656 15.5878 -38.9294 364.35 4.99071 -355.087
lowerback 5.89461 3.03343 4.16691
upperback -5.56876 4.64713 1.66098
thorax -9.02048 2.06001 -1.19106
lowerneck -11.6528 -1.5946 -0.155222
upperneck 26.9282 -2.1587 -0.0837176
head 10.5409 -0.978647 -0.263636
rclavicle -1.59028e-014 -4.77083e-015
rhumerus -51.9334 9.85794 -77.9508
rradius 22.5091
rwrist 24.4752
rhand -9.32333 -48.5531
rfingers 7.12502
rthumb 16.6352 -77.8602
lclavicle -1.59028e-014 -4.77083e-015
lhumerus -51.0005 1.80405 73.7135
lradius 25.5991
lwrist -29.0995
lhand 0.363749 -36.2933
lfingers 7.12502
lthumb 25.9387 -8.04308
rfemur -6.89591 15.8092 24.1094
rtibia 23.3128
rfoot -64.8154 -39.8373
rtoes 53.5282
lfemur -16.3385 -18.7514 -18.7375
ltibia 32.6593
lfoot -24.6845 21.8491
ltoes -3.87695
1440
root 6.36934 15.593 -38.9435 364.457 5.62909 -354.903
lowerback 5.75174 3.03535 3.86401
upperback -5.3969 4.60605 1.69954
thorax -8.77456 2.06932 -0.964102
lowerneck -11.7 -1.70332 -0.342553
upperneck 26.9648 -2.26882 -0.0756381
head 10.5665 -1.04529 -0.242842
rclavicle -6.14245e-014 -4.29375e-014
rhumerus -51.4295 10.0426 -77.6425
rradius 22.7478
rwrist 24.1276
rhand -9.0565 -48.8135
rfingers 7.12502
rthumb 16.892 -78.0988
lclavicle -6.14245e-014 -4.29375e-014
lhumerus -50.661 1.6105 73.3198
lradius 25.6013
lwrist -28.9951
lhand 0.678655 -35.8208
lfingers 7.12502
lthumb 26.2402 -7.61503
rfemur -6.93001 16.2994 23.9658
rtibia 23.2361
rfoot -65.9321 -40.3203
rtoes 53.824
lfemur -16.5076 -19.1473 -18.4791
ltibia 32.4647
lfoot -23.4256 21.4076
ltoes -1.68728
1441
root 6.37569 15.5941 -38.9594 364.605 6.34032 -354.718
lowerback 6.41995 2.93372 3.94466
upperback -5.7585 4.51648 1.46895
thorax -9.54614 1.98736 -1.29237
lowerneck -11.4053 -1.79987 -0.326671
upperneck 27.295 -2.43032 0.00136895
head 10.6321 -1.10505 -0.236526
rclavicle -1.47101e-014 -1.59028e-014
rhumerus -51.6591 10.0542 -77.6966
rradius 22.9796
rwrist 24.0287
rhand -8.81887 -48.887
rfingers 7.12502
rthumb 17.1208 -78.1527
lclavicle -1.47101e-014 -1.59028e-014
lhumerus -51.0804 1.0462 72.4581
lradius 25.6569
lwrist -28.9187
lhand 0.981768 -36.1766
lfingers 7.12502
lthumb 26.5304 -8.01437
rfemur -7.04102 16.6073 23.8197
rtibia 23.1944
rfoot -66.6314 -41.0951
rtoes 53.5646
lfemur -16.7833 -19.4776 -18.2366
ltibia 32.2604
lfoot -22.4483 20.6389
ltoes -3.59907
1442
root 6.38432 15.5871 -38.9708 364.688 7.01898 -354.563
lowerback 6.20572 2.88787 3.63921
upperback -5.60472 4.41346 1.58659
thorax -9.28477 1.97128 -0.967713
lowerneck -11.1407 -1.94856 -0.585233
upperneck 27.2205 -2.57087 -0.030181
head 10.5561 -1.19925 -0.216998
rclavicle 3.73715e-014 7.95139e-015
rhumerus -51.2856 10.3624 -77.3089
rradius 23.2469
rwrist 23.8074
rhand -8.77805 -48.8353
rfingers 7.12502
rthumb 17.1601 -78.0976
lclavicle 3.73715e-014 7.95139e-015
lhumerus -50.7858 1.35287 71.7623
lradius 25.3665
lwrist -29.5237
lhand 0.735889 -37.8275
lfingers 7.12502
lthumb 26.295 -9.62995
rfemur -7.07389 17.0781 23.7253
rtibia 23.2051
rfoot -67.2952 -41.4884
rtoes 53.7623
lfemur -17.0462 -19.8744 -18.0085
ltibia 32.05
lfoot -21.3026 20.354
ltoes -6.60103
1443
root 6.39254 15.5811 -38.9834 364.705 7.65458 -354.416
lowerback 6.05253 2.82976 3.31295
upperback -5.36668 4.2967 1.75512
thorax -8.973 1.95142 -0.578388
lowerneck -11.3186 -1.9463 -1.25937
upperneck 27.4788 -2.55513 0.491068
head 10.7063 -1.1954 0.0835994
rclavicle -1.51076e-014 4.77083e-015
rhumerus -50.8489 10.691 -76.8723
rradius 23.5326
rwrist 23.5137
rhand -9.00849 -48.7524
rfingers 7.12502
rthumb 16.9383 -78.0338
lclavicle -1.51076e-014 4.77083e-015
lhumerus -50.3793 1.64443 71.3739
lradius 25.1649
lwrist -29.927
lhand 0.458434 -37.9488
lfingers 7.12502
lthumb 26.0294 -9.71186
rfemur -6.9997 17.6161 23.6542
rtibia 23.2222
rfoot -68.1707 -41.4911
rtoes 54.4258
lfemur -17.2322 -20.349 -17.7905
ltibia 31.8651
lfoot -20.1144 20.4867
ltoes -7.83293
1444
root 6.40024 15.5815 -38.9998 364.753 8.32075 -354.288
lowerback 6.40456 2.6903 3.48012
upperback -5.40138 4.13211 1.58006
thorax -9.19888 1.84773 -0.854266
lowerneck -11.1609 -2.11031 -1.24868
upperneck 27.5158 -2.79095 0.48618
head 10.6911 -1.3024 0.0524549
rclavicle 7.35503e-015 3.18055e-015
rhumerus -50.6211 10.6709 -76.8393
rradius 23.6431
rwrist 23.3248
rhand -8.96414 -48.6707
rfingers 7.12502
rthumb 16.981 -77.9484
lclavicle 7.35503e-015 3.18055e-015
lhumerus -50.3299 1.30465 70.7937
lradius 25.3731
lwrist -29.5206
lhand 1.38967 -36.9106
lfingers 7.12502
lthumb 26.9207 -8.80796
rfemur -6.95526 17.9922 23.5901
rtibia 23.1934
rfoot -68.6305 -41.5205
rtoes 54.7229
lfemur -17.4001 -20.7807 -17.5745
ltibia 31.6899
lfoot -20.2064 18.9955
ltoes -7.33018
1445
root 6.40762 15.5806 -39.009 364.825 8.85384 -354.223
lowerback 6.09846 2.70229 3.05729
upperback -5.17059 4.09875 1.81929
thorax -8.81276 1.87799 -0.340636
lowerneck -11.1769 -2.30292 -1.47588
upperneck 27.5502 -2.97346 0.350759
head 10.7111 -1.42371 0.0199083
rclavicle -1.23246e-014 2.8625e-014
rhumerus -50.1202 11.0939 -76.3692
rradius 23.7095
rwrist 22.7446
rhand -8.76847 -48.6448
rfingers 7.12502
rthumb 17.1693 -77.9062
lclavicle -1.23246e-014 2.8625e-014
lhumerus -49.9701 1.63492 70.4548
lradius 25.2354
lwrist -30.0433
lhand 1.96343 -36.7604
lfingers 7.12502
lthumb 27.4696 -8.74366
rfemur -6.97624 18.505 23.5838
rtibia 23.1468
rfoot -68.3346 -41.8787
rtoes 54.2441
lfemur -17.5458 -21.2334 -17.3113
ltibia 31.5243
lfoot -20.4846 18.3209
ltoes -8.35345
